#!OML:ASF F:\VICON\USERDATA\INSTALL\rory3\rory3.ASF
:FULLY-SPECIFIED
:DEGREES
99
root 0.5130510363044144 17.705605393766344 50.04246649007746 -2.4780023023491227 -0.3897012523343654 2.626248023737245
lfemur 5.650986839617808 -2.9750112890965585 -27.01088366339787
ltibia 17.831846064294737
lfoot -18.286150344341802 1.8174088095201952
ltoes -1.9331212088229384
rfemur -30.010028231459998 2.236106257816776 17.82882826344563
rtibia 34.616670493758264
rfoot -9.038028819438306 -15.729548629895337
rtoes 0.4847268445622581
lowerback 10.144817331096018 -0.6997742053692474 -3.613110718800911
upperback 0.6562380810403952 -1.2810189537282897 0.9338164494309519
thorax -4.769072449432953 -0.5426326719922255 3.374074602230648
lowerneck -15.831253837209907 -2.754933877241994 -3.5442700463851673
upperneck 19.633310903168745 -3.3486919140036457 2.1110905701936016
head 8.844778221058712 -1.6144762922756073 0.8729202257297529
lclavicle -5.775221336591966e-16 -5.131475793140502e-16
lhumerus -22.70962506877403 -2.294916062907839 79.68944881894572
lradius 26.18465949518609
lwrist 7.795606411375244
lhand -30.24724382853233 20.07180170575833
lfingers 7.125020000000058
lthumb -3.5559432143104868 50.04048920147668
rclavicle -5.775221336591966e-16 -5.131475793140502e-16
rhumerus -31.509180438451562 -16.518247124814714 -80.72977050858519
rradius 29.304707087398185
rwrist 2.834936876075563
rhand -17.014383196723625 30.450688057640672
rfingers 7.125020000000058
rthumb 9.221792974177987 -5.785990955146993
100
root 0.46859490199133136 17.64461886249422 50.08078361327192 -1.8871379417771075 0.10641470552614973 2.910459190171738
lfemur 8.789966681101205 -3.049187632220134 -27.352148002651816
ltibia 13.821835442571881
lfoot -18.943445773031485 0.9259001349663922
ltoes -5.166029366007249
rfemur -30.071111040700785 4.378700258908679 16.494623115549338
rtibia 23.51545650523349
rfoot -9.559744909601324 -17.1323606856946
rtoes -1.8351107134504208
lowerback 9.784450062444588 -0.9828905414261241 -4.212081119323141
upperback 0.5420783935448454 -1.717149311796614 0.9605604746497247
thorax -4.718847695487388 -0.7437173372528104 3.718267386820658
lowerneck -16.019558687637762 -2.804594783535373 -3.5816296290783756
upperneck 19.56142462415545 -3.427996196171792 2.1482619854778164
head 8.860012034120873 -1.6414791751026927 0.8838800010993355
lclavicle -1.0428200486921503e-15 -8.734290978909364e-16
lhumerus -21.40961336853245 -3.5614382522381542 79.31304760806515
lradius 26.582307488169185
lwrist 8.096406340927496
lhand -30.500461601772813 19.76379777782896
lfingers 7.125020000000057
lthumb -3.8004997602774093 49.72732321087049
rclavicle -1.0428200486921503e-15 -8.734290978909364e-16
rhumerus -32.68733878008237 -17.80924138454416 -80.28842771384711
rradius 27.22123960201928
rwrist 3.497884288654155
rhand -17.05935296551117 30.32909348185882
rfingers 7.125020000000057
rthumb 9.178370285899327 -5.593136426626015
101
root 0.451019815948856 17.594841958755186 50.92534356570175 -1.411885097308716 0.6081058489814963 3.1054159151531224
lfemur 12.18946642473825 -3.4343209452338295 -27.26950809972933
ltibia 12.816062789560718
lfoot -18.504565968687242 0.17497276501228143
ltoes -8.967179454611564
rfemur -29.52640651835296 5.595301216988206 16.22061155914639
rtibia 18.79275312732676
rfoot -8.930144117814839 -16.396895867797674
rtoes -3.3092988682361444
lowerback 9.694903346189417 -1.1523762044879486 -4.4222796721008235
upperback 0.4806567949568596 -1.9611855301662149 1.0954570067023626
thorax -4.657732010326823 -0.8585953880859122 4.081593171874959
lowerneck -16.145475498163353 -2.78977544555572 -3.560232176516059
upperneck 19.775854380785077 -3.403705488987139 2.1843854889038816
head 8.961911292517971 -1.6294630936822248 0.890488213013485
lclavicle -6.418813040770916e-16 -5.629810687290294e-16
lhumerus -20.014863403897056 -3.9297037682436375 79.33951759509301
lradius 28.547253241572562
lwrist 8.828137043867084
lhand -30.827675298743312 19.366159590845765
lfingers 7.125020000000058
lthumb -4.116499579524713 49.323356861509026
rclavicle -6.418813040770916e-16 -5.629810687290294e-16
rhumerus -33.52640915636513 -19.02710285512984 -78.96873736208822
rradius 26.576127191238882
rwrist 5.1484832130812785
rhand -17.105486960580425 30.511738068138417
rfingers 7.125020000000058
rthumb 9.133871104354087 -5.222363922420003
102
root 0.4081546499754703 17.540549511346892 51.27944155359218 -1.3187323035531797 0.7289532684884725 2.8455099993416666
lfemur 14.10594836471143 -4.321138516797203 -27.14793203463911
ltibia 13.126806273237936
lfoot -17.544321277973605 -1.1493433363745256
ltoes -13.636534424536661
rfemur -29.877064305007668 5.612970330959405 16.664189468680284
rtibia 18.239803068272586
rfoot -7.903557641538622 -14.219284469898696
rtoes -3.896050534301745
lowerback 9.61425788528937 -1.317099015520459 -4.434470877949295
upperback 0.4087581491919349 -2.1752668611864516 1.2750573615740581
thorax -4.72406396234199 -0.959624578588303 4.228469089226852
lowerneck -16.31054728995564 -2.7627292121054934 -3.5458801595946365
upperneck 19.8933219763083 -3.343089790381966 2.0129177655798474
head 9.029785503520856 -1.612075531403692 0.8361713323255566
lclavicle -1.015504103601105e-15 -8.522782813907937e-16
lhumerus -19.757771664891038 -4.048210708025218 79.27460416853808
lradius 28.95425585931588
lwrist 8.888106210858293
lhand -31.46465407825176 18.320770457767196
lfingers 7.125020000000057
lthumb -4.731623859430174 48.2707637429696
rclavicle -1.015504103601105e-15 -8.522782813907937e-16
rhumerus -35.01777479067063 -21.311832788491415 -77.58339105777333
rradius 24.349946879804605
rwrist 6.877248643780329
rhand -17.242899561628256 30.36130137365702
rfingers 7.125020000000057
rthumb 9.001275287654288 -5.315381718825433
